<svg width="123" height="123" viewBox="0 0 123 123" fill="none" xmlns="http://www.w3.org/2000/svg">
<path d="M3 6C4.65685 6 6 4.65685 6 3C6 1.34315 4.65685 0 3 0C1.34315 0 0 1.34315 0 3C0 4.65685 1.34315 6 3 6Z" fill="#29D882"/>
<path d="M32 6C33.6569 6 35 4.65685 35 3C35 1.34315 33.6569 0 32 0C30.3431 0 29 1.34315 29 3C29 4.65685 30.3431 6 32 6Z" fill="#29D882"/>
<path d="M61 6C62.6569 6 64 4.65685 64 3C64 1.34315 62.6569 0 61 0C59.3431 0 58 1.34315 58 3C58 4.65685 59.3431 6 61 6Z" fill="#29D882"/>
<path d="M91 6C92.6569 6 94 4.65685 94 3C94 1.34315 92.6569 0 91 0C89.3431 0 88 1.34315 88 3C88 4.65685 89.3431 6 91 6Z" fill="#29D882"/>
<path d="M120 6C121.657 6 123 4.65685 123 3C123 1.34315 121.657 0 120 0C118.343 0 117 1.34315 117 3C117 4.65685 118.343 6 120 6Z" fill="#29D882"/>
<path d="M3 35C4.65685 35 6 33.6569 6 32C6 30.3431 4.65685 29 3 29C1.34315 29 0 30.3431 0 32C0 33.6569 1.34315 35 3 35Z" fill="#29D882"/>
<path d="M32 35C33.6569 35 35 33.6569 35 32C35 30.3431 33.6569 29 32 29C30.3431 29 29 30.3431 29 32C29 33.6569 30.3431 35 32 35Z" fill="#29D882"/>
<path d="M61 35C62.6569 35 64 33.6569 64 32C64 30.3431 62.6569 29 61 29C59.3431 29 58 30.3431 58 32C58 33.6569 59.3431 35 61 35Z" fill="#29D882"/>
<path d="M91 35C92.6569 35 94 33.6569 94 32C94 30.3431 92.6569 29 91 29C89.3431 29 88 30.3431 88 32C88 33.6569 89.3431 35 91 35Z" fill="#29D882"/>
<path d="M120 35C121.657 35 123 33.6569 123 32C123 30.3431 121.657 29 120 29C118.343 29 117 30.3431 117 32C117 33.6569 118.343 35 120 35Z" fill="#29D882"/>
<path d="M3 64C4.65685 64 6 62.6569 6 61C6 59.3431 4.65685 58 3 58C1.34315 58 0 59.3431 0 61C0 62.6569 1.34315 64 3 64Z" fill="#29D882"/>
<path d="M3 94C4.65685 94 6 92.6569 6 91C6 89.3431 4.65685 88 3 88C1.34315 88 0 89.3431 0 91C0 92.6569 1.34315 94 3 94Z" fill="#29D882"/>
<path d="M3 123C4.65685 123 6 121.657 6 120C6 118.343 4.65685 117 3 117C1.34315 117 0 118.343 0 120C0 121.657 1.34315 123 3 123Z" fill="#29D882"/>
<path d="M32 64C33.6569 64 35 62.6569 35 61C35 59.3431 33.6569 58 32 58C30.3431 58 29 59.3431 29 61C29 62.6569 30.3431 64 32 64Z" fill="#29D882"/>
<path d="M32 94C33.6569 94 35 92.6569 35 91C35 89.3431 33.6569 88 32 88C30.3431 88 29 89.3431 29 91C29 92.6569 30.3431 94 32 94Z" fill="#29D882"/>
<path d="M32 123C33.6569 123 35 121.657 35 120C35 118.343 33.6569 117 32 117C30.3431 117 29 118.343 29 120C29 121.657 30.3431 123 32 123Z" fill="#29D882"/>
<path d="M61 64C62.6569 64 64 62.6569 64 61C64 59.3431 62.6569 58 61 58C59.3431 58 58 59.3431 58 61C58 62.6569 59.3431 64 61 64Z" fill="#29D882"/>
<path d="M61 94C62.6569 94 64 92.6569 64 91C64 89.3431 62.6569 88 61 88C59.3431 88 58 89.3431 58 91C58 92.6569 59.3431 94 61 94Z" fill="#29D882"/>
<path d="M61 123C62.6569 123 64 121.657 64 120C64 118.343 62.6569 117 61 117C59.3431 117 58 118.343 58 120C58 121.657 59.3431 123 61 123Z" fill="#29D882"/>
<path d="M91 64C92.6569 64 94 62.6569 94 61C94 59.3431 92.6569 58 91 58C89.3431 58 88 59.3431 88 61C88 62.6569 89.3431 64 91 64Z" fill="#29D882"/>
<path d="M91 94C92.6569 94 94 92.6569 94 91C94 89.3431 92.6569 88 91 88C89.3431 88 88 89.3431 88 91C88 92.6569 89.3431 94 91 94Z" fill="#29D882"/>
<path d="M91 123C92.6569 123 94 121.657 94 120C94 118.343 92.6569 117 91 117C89.3431 117 88 118.343 88 120C88 121.657 89.3431 123 91 123Z" fill="#29D882"/>
<path d="M120 64C121.657 64 123 62.6569 123 61C123 59.3431 121.657 58 120 58C118.343 58 117 59.3431 117 61C117 62.6569 118.343 64 120 64Z" fill="#29D882"/>
<path d="M120 94C121.657 94 123 92.6569 123 91C123 89.3431 121.657 88 120 88C118.343 88 117 89.3431 117 91C117 92.6569 118.343 94 120 94Z" fill="#29D882"/>
<path d="M120 123C121.657 123 123 121.657 123 120C123 118.343 121.657 117 120 117C118.343 117 117 118.343 117 120C117 121.657 118.343 123 120 123Z" fill="#29D882"/>
</svg>
