<svg width="58" height="52" viewBox="0 0 58 52" fill="none" xmlns="http://www.w3.org/2000/svg">
<path d="M5.27273 0C3.87431 0 2.53317 0.547855 1.54435 1.52304C0.555518 2.49823 0 3.82087 0 5.2V36.4C0 37.7791 0.555518 39.1018 1.54435 40.077C2.53317 41.0521 3.87431 41.6 5.27273 41.6H23.7273V46.8H18.4545V52H39.5455V46.8H34.2727V41.6H52.7273C54.1257 41.6 55.4668 41.0521 56.4557 40.077C57.4445 39.1018 58 37.7791 58 36.4V5.2C58 3.82087 57.4445 2.49823 56.4557 1.52304C55.4668 0.547855 54.1257 0 52.7273 0H5.27273ZM5.27273 5.2H52.7273V36.4H5.27273V5.2ZM36.9091 7.8L27.6818 16.9L36.9091 26L40.6 22.36L35.0636 16.9L40.6 11.44L36.9091 7.8ZM21.0909 15.6L17.4 19.24L22.9364 24.7L17.4 30.16L21.0909 33.8L30.3182 24.7" fill="#29D882"/>
</svg>
